<svg width="164" height="164" viewBox="0 0 164 164" fill="none" xmlns="http://www.w3.org/2000/svg">
<g filter="url(#filter0_d_211_45)">
<circle cx="82" cy="78" r="62" fill="#4E6271" fill-opacity="0.75" shape-rendering="crispEdges"/>
</g>
<path opacity="0.1" d="M88.6307 45.1818L87.5057 94.4773H76.5284L75.4375 45.1818H88.6307ZM82.017 115.75C79.9489 115.75 78.1761 115.023 76.6989 113.568C75.2443 112.114 74.517 110.341 74.517 108.25C74.517 106.205 75.2443 104.455 76.6989 103C78.1761 101.545 79.9489 100.818 82.017 100.818C84.0398 100.818 85.7898 101.545 87.267 103C88.767 104.455 89.517 106.205 89.517 108.25C89.517 109.636 89.1648 110.898 88.4602 112.034C87.7784 113.17 86.8693 114.08 85.733 114.761C84.6193 115.42 83.3807 115.75 82.017 115.75Z" fill="#DDDDDD"/>
<path d="M31.5754 76.3643V74.8182H39.699V76.3643H36.5519V85H34.7224V76.3643H31.5754ZM41.1855 85V77.3636H42.9852V85H41.1855ZM42.0903 76.2798C41.8052 76.2798 41.56 76.1854 41.3545 75.9964C41.149 75.8042 41.0463 75.5739 41.0463 75.3054C41.0463 75.0336 41.149 74.8033 41.3545 74.6143C41.56 74.4221 41.8052 74.326 42.0903 74.326C42.3786 74.326 42.6239 74.4221 42.8261 74.6143C43.0316 74.8033 43.1343 75.0336 43.1343 75.3054C43.1343 75.5739 43.0316 75.8042 42.8261 75.9964C42.6239 76.1854 42.3786 76.2798 42.0903 76.2798ZM47.6697 85.1342C47.0698 85.1342 46.5328 84.9801 46.0589 84.6719C45.5849 84.3636 45.2104 83.9162 44.9353 83.3295C44.6602 82.7429 44.5226 82.0303 44.5226 81.1918C44.5226 80.3433 44.6618 79.6274 44.9403 79.044C45.222 78.4574 45.6015 78.0149 46.0787 77.7166C46.556 77.415 47.088 77.2642 47.6746 77.2642C48.1221 77.2642 48.49 77.3404 48.7783 77.4929C49.0667 77.642 49.2954 77.8227 49.4644 78.0348C49.6334 78.2436 49.7644 78.4408 49.8572 78.6264H49.9317V74.8182H51.7364V85H49.9665V83.7969H49.8572C49.7644 83.9825 49.6301 84.1797 49.4545 84.3885C49.2788 84.594 49.0468 84.7696 48.7584 84.9155C48.4701 85.0613 48.1072 85.1342 47.6697 85.1342ZM48.1718 83.6577C48.5529 83.6577 48.8778 83.5549 49.1462 83.3494C49.4147 83.1406 49.6185 82.8506 49.7577 82.4794C49.8969 82.1082 49.9665 81.6757 49.9665 81.1818C49.9665 80.688 49.8969 80.2588 49.7577 79.8942C49.6218 79.5296 49.4197 79.2462 49.1512 79.044C48.886 78.8419 48.5596 78.7408 48.1718 78.7408C47.7707 78.7408 47.436 78.8452 47.1675 79.054C46.8991 79.2628 46.6969 79.5511 46.561 79.919C46.4251 80.2869 46.3572 80.7079 46.3572 81.1818C46.3572 81.6591 46.4251 82.085 46.561 82.4595C46.7002 82.8307 46.904 83.1241 47.1725 83.3395C47.4443 83.5516 47.7774 83.6577 48.1718 83.6577ZM55.8517 85.1541C55.3677 85.1541 54.9319 85.0679 54.5441 84.8956C54.1597 84.7199 53.8547 84.4614 53.6294 84.12C53.4073 83.7786 53.2963 83.3577 53.2963 82.8572C53.2963 82.4264 53.3758 82.0701 53.5349 81.7884C53.694 81.5066 53.9111 81.2812 54.1862 81.1122C54.4613 80.9432 54.7712 80.8156 55.1159 80.7294C55.4639 80.6399 55.8235 80.5753 56.1947 80.5355C56.6421 80.4891 57.0051 80.4477 57.2835 80.4112C57.5619 80.3714 57.7641 80.3118 57.89 80.2322C58.0193 80.1494 58.0839 80.0218 58.0839 79.8494V79.8196C58.0839 79.4451 57.9729 79.1551 57.7508 78.9496C57.5287 78.7441 57.2089 78.6413 56.7913 78.6413C56.3505 78.6413 56.0008 78.7375 55.7423 78.9297C55.4871 79.1219 55.3147 79.349 55.2252 79.6108L53.5448 79.3722C53.6774 78.9081 53.8962 78.5204 54.2011 78.2088C54.506 77.8939 54.8789 77.6586 55.3197 77.5028C55.7605 77.3438 56.2477 77.2642 56.7813 77.2642C57.1492 77.2642 57.5155 77.3073 57.8801 77.3935C58.2446 77.4796 58.5777 77.6222 58.8794 77.821C59.181 78.0166 59.4229 78.2834 59.6052 78.6214C59.7908 78.9595 59.8836 79.3821 59.8836 79.8892V85H58.1535V83.951H58.0938C57.9845 84.1631 57.8303 84.362 57.6315 84.5476C57.4359 84.7299 57.189 84.8774 56.8907 84.9901C56.5957 85.0994 56.2494 85.1541 55.8517 85.1541ZM56.319 83.8317C56.6802 83.8317 56.9935 83.7604 57.2586 83.6179C57.5238 83.4721 57.7276 83.2798 57.8701 83.0412C58.016 82.8026 58.0889 82.5424 58.0889 82.2607V81.3608C58.0325 81.4072 57.9364 81.4503 57.8005 81.4901C57.6679 81.5298 57.5188 81.5646 57.3531 81.5945C57.1874 81.6243 57.0233 81.6508 56.8609 81.674C56.6985 81.6972 56.5576 81.7171 56.4383 81.7337C56.1698 81.7701 55.9295 81.8298 55.7174 81.9126C55.5053 81.9955 55.3379 82.1115 55.2153 82.2607C55.0927 82.4065 55.0313 82.5954 55.0313 82.8274C55.0313 83.1589 55.1523 83.4091 55.3943 83.5781C55.6362 83.7472 55.9445 83.8317 56.319 83.8317ZM63.3339 82.6037L63.3289 80.4311H63.6173L66.3616 77.3636H68.4646L65.0889 81.1222H64.716L63.3339 82.6037ZM61.6933 85V74.8182H63.493V85H61.6933ZM66.4859 85L64.0001 81.5249L65.2132 80.2571L68.6386 85H66.4859ZM74.5237 85H72.555L76.1395 74.8182H78.4165L82.0059 85H80.0372L77.3177 76.9062H77.2382L74.5237 85ZM74.5883 81.0078H79.9577V82.4893H74.5883V81.0078ZM85.8689 85.1342C85.269 85.1342 84.732 84.9801 84.2581 84.6719C83.7841 84.3636 83.4096 83.9162 83.1345 83.3295C82.8594 82.7429 82.7219 82.0303 82.7219 81.1918C82.7219 80.3433 82.8611 79.6274 83.1395 79.044C83.4212 78.4574 83.8007 78.0149 84.278 77.7166C84.7552 77.415 85.2872 77.2642 85.8738 77.2642C86.3213 77.2642 86.6892 77.3404 86.9775 77.4929C87.2659 77.642 87.4946 77.8227 87.6636 78.0348C87.8327 78.2436 87.9636 78.4408 88.0564 78.6264H88.1309V74.8182H89.9356V85H88.1657V83.7969H88.0564C87.9636 83.9825 87.8293 84.1797 87.6537 84.3885C87.478 84.594 87.246 84.7696 86.9577 84.9155C86.6693 85.0613 86.3064 85.1342 85.8689 85.1342ZM86.371 83.6577C86.7522 83.6577 87.077 83.5549 87.3454 83.3494C87.6139 83.1406 87.8177 82.8506 87.9569 82.4794C88.0961 82.1082 88.1657 81.6757 88.1657 81.1818C88.1657 80.688 88.0961 80.2588 87.9569 79.8942C87.8211 79.5296 87.6189 79.2462 87.3504 79.044C87.0853 78.8419 86.7588 78.7408 86.371 78.7408C85.97 78.7408 85.6352 78.8452 85.3667 79.054C85.0983 79.2628 84.8961 79.5511 84.7602 79.919C84.6243 80.2869 84.5564 80.7079 84.5564 81.1818C84.5564 81.6591 84.6243 82.085 84.7602 82.4595C84.8994 82.8307 85.1032 83.1241 85.3717 83.3395C85.6435 83.5516 85.9766 83.6577 86.371 83.6577ZM94.0509 85.1541C93.567 85.1541 93.1311 85.0679 92.7433 84.8956C92.3589 84.7199 92.0539 84.4614 91.8286 84.12C91.6065 83.7786 91.4955 83.3577 91.4955 82.8572C91.4955 82.4264 91.575 82.0701 91.7341 81.7884C91.8932 81.5066 92.1103 81.2812 92.3854 81.1122C92.6605 80.9432 92.9704 80.8156 93.3151 80.7294C93.6631 80.6399 94.0227 80.5753 94.3939 80.5355C94.8414 80.4891 95.2043 80.4477 95.4827 80.4112C95.7611 80.3714 95.9633 80.3118 96.0892 80.2322C96.2185 80.1494 96.2831 80.0218 96.2831 79.8494V79.8196C96.2831 79.4451 96.1721 79.1551 95.95 78.9496C95.728 78.7441 95.4081 78.6413 94.9905 78.6413C94.5497 78.6413 94.2 78.7375 93.9415 78.9297C93.6863 79.1219 93.5139 79.349 93.4244 79.6108L91.7441 79.3722C91.8766 78.9081 92.0954 78.5204 92.4003 78.2088C92.7052 77.8939 93.0781 77.6586 93.5189 77.5028C93.9597 77.3438 94.4469 77.2642 94.9806 77.2642C95.3485 77.2642 95.7147 77.3073 96.0793 77.3935C96.4439 77.4796 96.777 77.6222 97.0786 77.821C97.3802 78.0166 97.6221 78.2834 97.8044 78.6214C97.99 78.9595 98.0828 79.3821 98.0828 79.8892V85H96.3527V83.951H96.2931C96.1837 84.1631 96.0296 84.362 95.8307 84.5476C95.6352 84.7299 95.3882 84.8774 95.0899 84.9901C94.795 85.0994 94.4486 85.1541 94.0509 85.1541ZM94.5182 83.8317C94.8795 83.8317 95.1927 83.7604 95.4578 83.6179C95.723 83.4721 95.9268 83.2798 96.0693 83.0412C96.2152 82.8026 96.2881 82.5424 96.2881 82.2607V81.3608C96.2317 81.4072 96.1356 81.4503 95.9997 81.4901C95.8672 81.5298 95.718 81.5646 95.5523 81.5945C95.3866 81.6243 95.2225 81.6508 95.0601 81.674C94.8977 81.6972 94.7568 81.7171 94.6375 81.7337C94.3691 81.7701 94.1288 81.8298 93.9166 81.9126C93.7045 81.9955 93.5371 82.1115 93.4145 82.2607C93.2919 82.4065 93.2306 82.5954 93.2306 82.8274C93.2306 83.1589 93.3515 83.4091 93.5935 83.5781C93.8354 83.7472 94.1437 83.8317 94.5182 83.8317ZM106.895 85H103.445V74.8182H106.965C107.975 74.8182 108.844 75.022 109.57 75.4297C110.299 75.834 110.859 76.4157 111.25 77.1747C111.641 77.9337 111.837 78.8419 111.837 79.8991C111.837 80.9598 111.64 81.8712 111.245 82.6335C110.854 83.3958 110.289 83.9808 109.55 84.3885C108.814 84.7962 107.929 85 106.895 85ZM105.289 83.4041H106.805C107.515 83.4041 108.106 83.2749 108.58 83.0163C109.054 82.7545 109.411 82.3651 109.649 81.848C109.888 81.3277 110.007 80.678 110.007 79.8991C110.007 79.1203 109.888 78.474 109.649 77.9602C109.411 77.4432 109.058 77.0571 108.59 76.8018C108.126 76.5433 107.55 76.4141 106.86 76.4141H105.289V83.4041ZM115.707 85.1541C115.223 85.1541 114.787 85.0679 114.4 84.8956C114.015 84.7199 113.71 84.4614 113.485 84.12C113.263 83.7786 113.152 83.3577 113.152 82.8572C113.152 82.4264 113.231 82.0701 113.39 81.7884C113.549 81.5066 113.767 81.2812 114.042 81.1122C114.317 80.9432 114.627 80.8156 114.971 80.7294C115.319 80.6399 115.679 80.5753 116.05 80.5355C116.498 80.4891 116.861 80.4477 117.139 80.4112C117.417 80.3714 117.62 80.3118 117.745 80.2322C117.875 80.1494 117.939 80.0218 117.939 79.8494V79.8196C117.939 79.4451 117.828 79.1551 117.606 78.9496C117.384 78.7441 117.064 78.6413 116.647 78.6413C116.206 78.6413 115.856 78.7375 115.598 78.9297C115.343 79.1219 115.17 79.349 115.081 79.6108L113.4 79.3722C113.533 78.9081 113.752 78.5204 114.057 78.2088C114.361 77.8939 114.734 77.6586 115.175 77.5028C115.616 77.3438 116.103 77.2642 116.637 77.2642C117.005 77.2642 117.371 77.3073 117.736 77.3935C118.1 77.4796 118.433 77.6222 118.735 77.821C119.036 78.0166 119.278 78.2834 119.461 78.6214C119.646 78.9595 119.739 79.3821 119.739 79.8892V85H118.009V83.951H117.949C117.84 84.1631 117.686 84.362 117.487 84.5476C117.291 84.7299 117.044 84.8774 116.746 84.9901C116.451 85.0994 116.105 85.1541 115.707 85.1541ZM116.174 83.8317C116.536 83.8317 116.849 83.7604 117.114 83.6179C117.379 83.4721 117.583 83.2798 117.726 83.0412C117.871 82.8026 117.944 82.5424 117.944 82.2607V81.3608C117.888 81.4072 117.792 81.4503 117.656 81.4901C117.523 81.5298 117.374 81.5646 117.209 81.5945C117.043 81.6243 116.879 81.6508 116.716 81.674C116.554 81.6972 116.413 81.7171 116.294 81.7337C116.025 81.7701 115.785 81.8298 115.573 81.9126C115.361 81.9955 115.193 82.1115 115.071 82.2607C114.948 82.4065 114.887 82.5954 114.887 82.8274C114.887 83.1589 115.008 83.4091 115.25 83.5781C115.492 83.7472 115.8 83.8317 116.174 83.8317ZM125.362 77.3636V78.7557H120.972V77.3636H125.362ZM122.056 75.5341H123.856V82.7031C123.856 82.9451 123.892 83.1307 123.965 83.2599C124.041 83.3859 124.141 83.4721 124.263 83.5185C124.386 83.5649 124.522 83.5881 124.671 83.5881C124.784 83.5881 124.886 83.5798 124.979 83.5632C125.075 83.5466 125.148 83.5317 125.198 83.5185L125.501 84.9254C125.405 84.9586 125.267 84.995 125.089 85.0348C124.913 85.0746 124.697 85.0978 124.442 85.1044C123.991 85.1177 123.585 85.0497 123.224 84.9006C122.863 84.7481 122.576 84.5128 122.364 84.1946C122.155 83.8764 122.053 83.4787 122.056 83.0014V75.5341ZM129.065 85.1541C128.581 85.1541 128.145 85.0679 127.757 84.8956C127.373 84.7199 127.068 84.4614 126.842 84.12C126.62 83.7786 126.509 83.3577 126.509 82.8572C126.509 82.4264 126.589 82.0701 126.748 81.7884C126.907 81.5066 127.124 81.2812 127.399 81.1122C127.674 80.9432 127.984 80.8156 128.329 80.7294C128.677 80.6399 129.036 80.5753 129.408 80.5355C129.855 80.4891 130.218 80.4477 130.496 80.4112C130.775 80.3714 130.977 80.3118 131.103 80.2322C131.232 80.1494 131.297 80.0218 131.297 79.8494V79.8196C131.297 79.4451 131.186 79.1551 130.964 78.9496C130.742 78.7441 130.422 78.6413 130.004 78.6413C129.563 78.6413 129.214 78.7375 128.955 78.9297C128.7 79.1219 128.528 79.349 128.438 79.6108L126.758 79.3722C126.89 78.9081 127.109 78.5204 127.414 78.2088C127.719 77.8939 128.092 77.6586 128.533 77.5028C128.973 77.3438 129.461 77.2642 129.994 77.2642C130.362 77.2642 130.728 77.3073 131.093 77.3935C131.458 77.4796 131.791 77.6222 132.092 77.821C132.394 78.0166 132.636 78.2834 132.818 78.6214C133.004 78.9595 133.097 79.3821 133.097 79.8892V85H131.366V83.951H131.307C131.197 84.1631 131.043 84.362 130.844 84.5476C130.649 84.7299 130.402 84.8774 130.104 84.9901C129.809 85.0994 129.462 85.1541 129.065 85.1541ZM129.532 83.8317C129.893 83.8317 130.206 83.7604 130.472 83.6179C130.737 83.4721 130.94 83.2798 131.083 83.0412C131.229 82.8026 131.302 82.5424 131.302 82.2607V81.3608C131.245 81.4072 131.149 81.4503 131.013 81.4901C130.881 81.5298 130.732 81.5646 130.566 81.5945C130.4 81.6243 130.236 81.6508 130.074 81.674C129.911 81.6972 129.771 81.7171 129.651 81.7337C129.383 81.7701 129.142 81.8298 128.93 81.9126C128.718 81.9955 128.551 82.1115 128.428 82.2607C128.306 82.4065 128.244 82.5954 128.244 82.8274C128.244 83.1589 128.365 83.4091 128.607 83.5781C128.849 83.7472 129.157 83.8317 129.532 83.8317Z" fill="#C7D0DA"/>
<defs>
<filter id="filter0_d_211_45" x="0" y="0" width="164" height="164" filterUnits="userSpaceOnUse" color-interpolation-filters="sRGB">
<feFlood flood-opacity="0" result="BackgroundImageFix"/>
<feColorMatrix in="SourceAlpha" type="matrix" values="0 0 0 0 0 0 0 0 0 0 0 0 0 0 0 0 0 0 127 0" result="hardAlpha"/>
<feOffset dy="4"/>
<feGaussianBlur stdDeviation="10"/>
<feComposite in2="hardAlpha" operator="out"/>
<feColorMatrix type="matrix" values="0 0 0 0 0.0170247 0 0 0 0 0.0170247 0 0 0 0 0.0170247 0 0 0 0.25 0"/>
<feBlend mode="normal" in2="BackgroundImageFix" result="effect1_dropShadow_211_45"/>
<feBlend mode="normal" in="SourceGraphic" in2="effect1_dropShadow_211_45" result="shape"/>
</filter>
</defs>
</svg>
