<svg width="161" height="36" viewBox="0 0 161 36" fill="none" xmlns="http://www.w3.org/2000/svg">
<circle cx="18" cy="18" r="15.75" stroke="#005DD1" stroke-width="4.5"/>
<circle cx="37.6875" cy="18" r="15.75" stroke="#005DD1" stroke-width="4.5"/>
<path d="M82.0369 17.2727C82.0369 19.1534 81.6847 20.7642 80.9801 22.1051C80.2813 23.4403 79.3267 24.4631 78.1165 25.1733C76.9119 25.8835 75.5455 26.2386 74.017 26.2386C72.4886 26.2386 71.1193 25.8835 69.9091 25.1733C68.7045 24.4574 67.75 23.4318 67.0455 22.0966C66.3466 20.7557 65.9972 19.1477 65.9972 17.2727C65.9972 15.392 66.3466 13.7841 67.0455 12.4489C67.75 11.108 68.7045 10.0824 69.9091 9.37216C71.1193 8.66193 72.4886 8.30682 74.017 8.30682C75.5455 8.30682 76.9119 8.66193 78.1165 9.37216C79.3267 10.0824 80.2813 11.108 80.9801 12.4489C81.6847 13.7841 82.0369 15.392 82.0369 17.2727ZM78.858 17.2727C78.858 15.9489 78.6506 14.8324 78.2358 13.9233C77.8267 13.0085 77.2585 12.3182 76.5312 11.8523C75.804 11.3807 74.9659 11.1449 74.017 11.1449C73.0682 11.1449 72.2301 11.3807 71.5028 11.8523C70.7756 12.3182 70.2045 13.0085 69.7898 13.9233C69.3807 14.8324 69.1761 15.9489 69.1761 17.2727C69.1761 18.5966 69.3807 19.7159 69.7898 20.6307C70.2045 21.5398 70.7756 22.2301 71.5028 22.7017C72.2301 23.1676 73.0682 23.4006 74.017 23.4006C74.9659 23.4006 75.804 23.1676 76.5312 22.7017C77.2585 22.2301 77.8267 21.5398 78.2358 20.6307C78.6506 19.7159 78.858 18.5966 78.858 17.2727ZM87.7024 21.892L87.6939 18.1676H88.1882L92.8928 12.9091H96.4979L90.7109 19.3523H90.0717L87.7024 21.892ZM84.8899 26V8.54545H87.9751V26H84.8899ZM93.1058 26L88.8445 20.0426L90.924 17.8693L96.7962 26H93.1058ZM108.901 16.3693L106.088 16.6761C106.009 16.392 105.869 16.125 105.67 15.875C105.477 15.625 105.216 15.4233 104.886 15.2699C104.557 15.1165 104.153 15.0398 103.676 15.0398C103.034 15.0398 102.494 15.179 102.057 15.4574C101.625 15.7358 101.412 16.0966 101.418 16.5398C101.412 16.9205 101.551 17.2301 101.835 17.4688C102.125 17.7074 102.602 17.9034 103.267 18.0568L105.5 18.5341C106.739 18.8011 107.659 19.2244 108.261 19.804C108.869 20.3835 109.176 21.142 109.182 22.0795C109.176 22.9034 108.935 23.6307 108.457 24.2614C107.986 24.8864 107.33 25.375 106.489 25.7273C105.648 26.0795 104.682 26.2557 103.591 26.2557C101.989 26.2557 100.699 25.9205 99.7216 25.25C98.7443 24.5739 98.1619 23.6335 97.9744 22.429L100.983 22.1392C101.119 22.7301 101.409 23.1761 101.852 23.4773C102.295 23.7784 102.872 23.929 103.582 23.929C104.315 23.929 104.903 23.7784 105.347 23.4773C105.795 23.1761 106.02 22.804 106.02 22.3608C106.02 21.9858 105.875 21.6761 105.585 21.4318C105.301 21.1875 104.858 21 104.256 20.8693L102.023 20.4006C100.767 20.1392 99.8381 19.6989 99.2358 19.0795C98.6335 18.4545 98.3352 17.6648 98.3409 16.7102C98.3352 15.9034 98.554 15.2045 98.9972 14.6136C99.446 14.017 100.068 13.5568 100.864 13.233C101.665 12.9034 102.588 12.7386 103.634 12.7386C105.168 12.7386 106.375 13.0653 107.256 13.7188C108.142 14.3722 108.69 15.2557 108.901 16.3693ZM111.726 26V12.9091H114.811V26H111.726ZM113.277 11.0511C112.788 11.0511 112.368 10.8892 112.016 10.5653C111.663 10.2358 111.487 9.84091 111.487 9.38068C111.487 8.91477 111.663 8.51989 112.016 8.19602C112.368 7.86648 112.788 7.7017 113.277 7.7017C113.771 7.7017 114.192 7.86648 114.538 8.19602C114.891 8.51989 115.067 8.91477 115.067 9.38068C115.067 9.84091 114.891 10.2358 114.538 10.5653C114.192 10.8892 113.771 11.0511 113.277 11.0511ZM123.677 31.1818C122.569 31.1818 121.617 31.0313 120.822 30.7301C120.026 30.4347 119.387 30.0369 118.904 29.5369C118.421 29.0369 118.086 28.483 117.898 27.875L120.677 27.2017C120.802 27.4574 120.984 27.7102 121.222 27.9602C121.461 28.2159 121.782 28.4261 122.185 28.5909C122.594 28.7614 123.109 28.8466 123.728 28.8466C124.603 28.8466 125.327 28.6335 125.901 28.2074C126.475 27.7869 126.762 27.0938 126.762 26.1278V23.6477H126.609C126.45 23.9659 126.217 24.2926 125.91 24.6278C125.609 24.9631 125.208 25.2443 124.708 25.4716C124.214 25.6989 123.592 25.8125 122.842 25.8125C121.836 25.8125 120.924 25.5767 120.106 25.1051C119.293 24.6278 118.646 23.9176 118.163 22.9744C117.685 22.0256 117.447 20.8381 117.447 19.4119C117.447 17.9744 117.685 16.7614 118.163 15.7727C118.646 14.7784 119.296 14.0256 120.114 13.5142C120.933 12.9972 121.844 12.7386 122.85 12.7386C123.617 12.7386 124.248 12.8693 124.742 13.1307C125.242 13.3864 125.64 13.696 125.935 14.0597C126.231 14.4176 126.455 14.7557 126.609 15.0739H126.779V12.9091H129.822V26.2131C129.822 27.3324 129.555 28.2585 129.021 28.9915C128.487 29.7244 127.756 30.2727 126.83 30.6364C125.904 31 124.853 31.1818 123.677 31.1818ZM123.702 23.392C124.356 23.392 124.913 23.233 125.373 22.9148C125.833 22.5966 126.183 22.1392 126.421 21.5426C126.66 20.946 126.779 20.2301 126.779 19.3949C126.779 18.571 126.66 17.8494 126.421 17.2301C126.188 16.6108 125.842 16.1307 125.381 15.7898C124.927 15.4432 124.367 15.2699 123.702 15.2699C123.015 15.2699 122.441 15.4489 121.981 15.8068C121.521 16.1648 121.174 16.6562 120.941 17.2812C120.708 17.9006 120.592 18.6051 120.592 19.3949C120.592 20.196 120.708 20.8977 120.941 21.5C121.18 22.0966 121.529 22.5625 121.989 22.8977C122.455 23.2273 123.026 23.392 123.702 23.392ZM138.779 26.2557C137.467 26.2557 136.333 25.983 135.379 25.4375C134.43 24.8864 133.7 24.108 133.188 23.1023C132.677 22.0909 132.421 20.9006 132.421 19.5312C132.421 18.1847 132.677 17.0028 133.188 15.9858C133.705 14.9631 134.427 14.1676 135.353 13.5994C136.279 13.0256 137.367 12.7386 138.617 12.7386C139.424 12.7386 140.185 12.8693 140.901 13.1307C141.623 13.3864 142.259 13.7841 142.81 14.3239C143.367 14.8636 143.805 15.5511 144.123 16.3864C144.441 17.2159 144.6 18.2045 144.6 19.3523V20.2983H133.87V18.2188H141.643C141.637 17.6278 141.509 17.1023 141.259 16.642C141.009 16.1761 140.66 15.8097 140.211 15.5426C139.768 15.2756 139.251 15.142 138.66 15.142C138.029 15.142 137.475 15.2955 136.998 15.6023C136.521 15.9034 136.148 16.3011 135.881 16.7955C135.62 17.2841 135.487 17.821 135.481 18.4062V20.2216C135.481 20.983 135.62 21.6364 135.898 22.1818C136.177 22.7216 136.566 23.1364 137.066 23.4261C137.566 23.7102 138.151 23.8523 138.822 23.8523C139.271 23.8523 139.677 23.7898 140.04 23.6648C140.404 23.5341 140.719 23.3438 140.987 23.0938C141.254 22.8438 141.455 22.5341 141.592 22.1648L144.472 22.4886C144.29 23.25 143.944 23.9148 143.433 24.483C142.927 25.0455 142.279 25.483 141.489 25.7955C140.7 26.1023 139.796 26.2557 138.779 26.2557ZM150.295 18.3295V26H147.21V12.9091H150.159V15.1335H150.312C150.614 14.4006 151.094 13.8182 151.753 13.3864C152.418 12.9545 153.239 12.7386 154.216 12.7386C155.119 12.7386 155.906 12.9318 156.577 13.3182C157.253 13.7045 157.776 14.2642 158.145 14.9972C158.52 15.7301 158.705 16.6193 158.699 17.6648V26H155.614V18.142C155.614 17.267 155.386 16.5824 154.932 16.0881C154.483 15.5937 153.861 15.3466 153.065 15.3466C152.526 15.3466 152.045 15.4659 151.625 15.7045C151.21 15.9375 150.884 16.2756 150.645 16.7188C150.412 17.1619 150.295 17.6989 150.295 18.3295Z" fill="#1C2B33"/>
</svg>
