<svg width="206" height="36" viewBox="0 0 206 36" fill="none" xmlns="http://www.w3.org/2000/svg">
<circle cx="18" cy="18" r="15.75" stroke="white" stroke-width="4.5"/>
<circle cx="37.6875" cy="18" r="15.75" stroke="white" stroke-width="4.5"/>
<path d="M75.9261 13.3438C75.8466 12.5994 75.5114 12.0199 74.9205 11.6051C74.3352 11.1903 73.5739 10.983 72.6364 10.983C71.9773 10.983 71.4119 11.0824 70.9403 11.2812C70.4688 11.4801 70.108 11.75 69.858 12.0909C69.608 12.4318 69.4801 12.821 69.4744 13.2585C69.4744 13.6222 69.5568 13.9375 69.7216 14.2045C69.892 14.4716 70.1222 14.6989 70.4119 14.8864C70.7017 15.0682 71.0227 15.2216 71.375 15.3466C71.7273 15.4716 72.0824 15.5767 72.4403 15.6619L74.0767 16.071C74.7358 16.2244 75.3693 16.4318 75.9773 16.6932C76.5909 16.9545 77.1392 17.2841 77.6222 17.6818C78.1108 18.0795 78.4972 18.5597 78.7812 19.1222C79.0653 19.6847 79.2074 20.3437 79.2074 21.0994C79.2074 22.1222 78.946 23.0227 78.4233 23.8011C77.9006 24.5739 77.1449 25.179 76.1562 25.6165C75.1733 26.0483 73.983 26.2642 72.5852 26.2642C71.2273 26.2642 70.0483 26.054 69.0483 25.6335C68.054 25.2131 67.2756 24.5994 66.7131 23.7926C66.1563 22.9858 65.8551 22.0028 65.8097 20.8438H68.9205C68.9659 21.4517 69.1534 21.9574 69.483 22.3608C69.8125 22.7642 70.2415 23.0653 70.7699 23.2642C71.304 23.4631 71.9006 23.5625 72.5597 23.5625C73.2472 23.5625 73.8494 23.4602 74.3665 23.2557C74.8892 23.0455 75.2983 22.7557 75.5938 22.3864C75.8892 22.0114 76.0398 21.5739 76.0455 21.0739C76.0398 20.6193 75.9063 20.2443 75.6449 19.9489C75.3835 19.6477 75.017 19.3977 74.5455 19.1989C74.0795 18.9943 73.5341 18.8125 72.9091 18.6534L70.9233 18.142C69.4858 17.7727 68.3494 17.2131 67.5142 16.4631C66.6847 15.7074 66.2699 14.7045 66.2699 13.4545C66.2699 12.4261 66.5483 11.5256 67.1051 10.7528C67.6676 9.98011 68.4318 9.38068 69.3977 8.95454C70.3636 8.52273 71.4574 8.30682 72.679 8.30682C73.9176 8.30682 75.0028 8.52273 75.9347 8.95454C76.8722 9.38068 77.608 9.97443 78.142 10.7358C78.6761 11.4915 78.9517 12.3608 78.9688 13.3438H75.9261ZM90.2337 20.4943V12.9091H93.3189V26H90.3274V23.6733H90.1911C89.8956 24.4062 89.4098 25.0057 88.7337 25.4716C88.0632 25.9375 87.2365 26.1705 86.2536 26.1705C85.3956 26.1705 84.6371 25.9801 83.978 25.5994C83.3246 25.2131 82.8132 24.6534 82.4439 23.9205C82.0746 23.1818 81.8899 22.2898 81.8899 21.2443V12.9091H84.9751V20.767C84.9751 21.5966 85.2024 22.2557 85.657 22.7443C86.1115 23.233 86.7081 23.4773 87.4467 23.4773C87.9013 23.4773 88.3416 23.3665 88.7678 23.1449C89.1939 22.9233 89.5433 22.5938 89.8161 22.1562C90.0945 21.7131 90.2337 21.1591 90.2337 20.4943ZM96.4915 30.9091V12.9091H99.5256V15.0739H99.7045C99.8636 14.7557 100.088 14.4176 100.378 14.0597C100.668 13.696 101.06 13.3864 101.554 13.1307C102.048 12.8693 102.679 12.7386 103.446 12.7386C104.457 12.7386 105.369 12.9972 106.182 13.5142C107 14.0256 107.648 14.7841 108.125 15.7898C108.608 16.7898 108.849 18.017 108.849 19.4716C108.849 20.9091 108.614 22.1307 108.142 23.1364C107.67 24.142 107.028 24.9091 106.216 25.4375C105.403 25.9659 104.483 26.2301 103.455 26.2301C102.705 26.2301 102.082 26.1051 101.588 25.8551C101.094 25.6051 100.696 25.304 100.395 24.9517C100.099 24.5937 99.8693 24.2557 99.7045 23.9375H99.5767V30.9091H96.4915ZM99.517 19.4545C99.517 20.3011 99.6364 21.0426 99.875 21.679C100.119 22.3153 100.469 22.8125 100.923 23.1705C101.384 23.5227 101.94 23.6989 102.594 23.6989C103.276 23.6989 103.847 23.517 104.307 23.1534C104.767 22.7841 105.114 22.2812 105.347 21.6449C105.585 21.0028 105.705 20.2727 105.705 19.4545C105.705 18.642 105.588 17.9205 105.355 17.2898C105.122 16.6591 104.776 16.1648 104.315 15.8068C103.855 15.4489 103.281 15.2699 102.594 15.2699C101.935 15.2699 101.375 15.4432 100.915 15.7898C100.455 16.1364 100.105 16.6222 99.8665 17.2472C99.6335 17.8722 99.517 18.608 99.517 19.4545ZM117.287 26.2557C115.974 26.2557 114.841 25.983 113.886 25.4375C112.938 24.8864 112.207 24.108 111.696 23.1023C111.185 22.0909 110.929 20.9006 110.929 19.5312C110.929 18.1847 111.185 17.0028 111.696 15.9858C112.213 14.9631 112.935 14.1676 113.861 13.5994C114.787 13.0256 115.875 12.7386 117.125 12.7386C117.932 12.7386 118.693 12.8693 119.409 13.1307C120.131 13.3864 120.767 13.7841 121.318 14.3239C121.875 14.8636 122.313 15.5511 122.631 16.3864C122.949 17.2159 123.108 18.2045 123.108 19.3523V20.2983H112.378V18.2188H120.151C120.145 17.6278 120.017 17.1023 119.767 16.642C119.517 16.1761 119.168 15.8097 118.719 15.5426C118.276 15.2756 117.759 15.142 117.168 15.142C116.537 15.142 115.983 15.2955 115.506 15.6023C115.028 15.9034 114.656 16.3011 114.389 16.7955C114.128 17.2841 113.994 17.821 113.989 18.4062V20.2216C113.989 20.983 114.128 21.6364 114.406 22.1818C114.685 22.7216 115.074 23.1364 115.574 23.4261C116.074 23.7102 116.659 23.8523 117.33 23.8523C117.778 23.8523 118.185 23.7898 118.548 23.6648C118.912 23.5341 119.227 23.3438 119.494 23.0938C119.761 22.8438 119.963 22.5341 120.099 22.1648L122.98 22.4886C122.798 23.25 122.452 23.9148 121.94 24.483C121.435 25.0455 120.787 25.483 119.997 25.7955C119.207 26.1023 118.304 26.2557 117.287 26.2557ZM125.718 26V12.9091H128.71V15.0909H128.846C129.085 14.3352 129.494 13.7528 130.073 13.3438C130.658 12.929 131.326 12.7216 132.076 12.7216C132.246 12.7216 132.437 12.7301 132.647 12.7472C132.863 12.7585 133.042 12.7784 133.184 12.8068V15.6449C133.053 15.5994 132.846 15.5597 132.562 15.5256C132.283 15.4858 132.013 15.4659 131.752 15.4659C131.19 15.4659 130.684 15.5881 130.235 15.8324C129.792 16.071 129.442 16.4034 129.187 16.8295C128.931 17.2557 128.803 17.7472 128.803 18.304V26H125.718ZM138.766 26.2642C137.937 26.2642 137.19 26.1165 136.525 25.821C135.866 25.5199 135.343 25.0767 134.957 24.4915C134.576 23.9062 134.386 23.1847 134.386 22.3267C134.386 21.5881 134.522 20.9773 134.795 20.4943C135.067 20.0114 135.44 19.625 135.911 19.3352C136.383 19.0455 136.914 18.8267 137.505 18.679C138.102 18.5256 138.718 18.4148 139.354 18.3466C140.121 18.267 140.744 18.196 141.221 18.1335C141.698 18.0653 142.045 17.9631 142.261 17.8267C142.482 17.6847 142.593 17.4659 142.593 17.1705V17.1193C142.593 16.4773 142.403 15.9801 142.022 15.6278C141.641 15.2756 141.093 15.0994 140.377 15.0994C139.621 15.0994 139.022 15.2642 138.579 15.5938C138.141 15.9233 137.846 16.3125 137.692 16.7614L134.812 16.3523C135.039 15.5568 135.414 14.892 135.937 14.358C136.46 13.8182 137.099 13.4148 137.854 13.1477C138.61 12.875 139.445 12.7386 140.36 12.7386C140.991 12.7386 141.619 12.8125 142.244 12.9602C142.869 13.108 143.44 13.3523 143.957 13.6932C144.474 14.0284 144.888 14.4858 145.201 15.0653C145.519 15.6449 145.678 16.3693 145.678 17.2386V26H142.712V24.2017H142.61C142.423 24.5653 142.158 24.9062 141.817 25.2244C141.482 25.5369 141.059 25.7898 140.548 25.983C140.042 26.1705 139.448 26.2642 138.766 26.2642ZM139.567 23.9972C140.187 23.9972 140.724 23.875 141.178 23.6307C141.633 23.3807 141.982 23.0511 142.227 22.642C142.477 22.233 142.602 21.7869 142.602 21.304V19.7614C142.505 19.8409 142.34 19.9148 142.107 19.983C141.88 20.0511 141.624 20.1108 141.34 20.1619C141.056 20.2131 140.775 20.2585 140.496 20.2983C140.218 20.3381 139.977 20.3722 139.772 20.4006C139.312 20.4631 138.9 20.5653 138.536 20.7074C138.173 20.8494 137.886 21.0483 137.675 21.304C137.465 21.554 137.36 21.8778 137.36 22.2756C137.36 22.8438 137.567 23.2727 137.982 23.5625C138.397 23.8523 138.925 23.9972 139.567 23.9972ZM153.638 26.2301C152.61 26.2301 151.69 25.9659 150.877 25.4375C150.065 24.9091 149.423 24.142 148.951 23.1364C148.479 22.1307 148.244 20.9091 148.244 19.4716C148.244 18.017 148.482 16.7898 148.96 15.7898C149.442 14.7841 150.093 14.0256 150.911 13.5142C151.729 12.9972 152.641 12.7386 153.647 12.7386C154.414 12.7386 155.045 12.8693 155.539 13.1307C156.033 13.3864 156.425 13.696 156.715 14.0597C157.005 14.4176 157.229 14.7557 157.388 15.0739H157.516V8.54545H160.61V26H157.576V23.9375H157.388C157.229 24.2557 156.999 24.5937 156.698 24.9517C156.397 25.304 155.999 25.6051 155.505 25.8551C155.011 26.1051 154.388 26.2301 153.638 26.2301ZM154.499 23.6989C155.153 23.6989 155.71 23.5227 156.17 23.1705C156.63 22.8125 156.979 22.3153 157.218 21.679C157.457 21.0426 157.576 20.3011 157.576 19.4545C157.576 18.608 157.457 17.8722 157.218 17.2472C156.985 16.6222 156.638 16.1364 156.178 15.7898C155.724 15.4432 155.164 15.2699 154.499 15.2699C153.812 15.2699 153.238 15.4489 152.778 15.8068C152.317 16.1648 151.971 16.6591 151.738 17.2898C151.505 17.9205 151.388 18.642 151.388 19.4545C151.388 20.2727 151.505 21.0028 151.738 21.6449C151.977 22.2812 152.326 22.7841 152.786 23.1534C153.252 23.517 153.823 23.6989 154.499 23.6989ZM163.898 26V12.9091H166.847V15.1335H167C167.273 14.3835 167.724 13.7983 168.355 13.3778C168.986 12.9517 169.739 12.7386 170.614 12.7386C171.5 12.7386 172.247 12.9545 172.855 13.3864C173.469 13.8125 173.901 14.3949 174.151 15.1335H174.287C174.577 14.4062 175.065 13.8267 175.753 13.3949C176.446 12.9574 177.267 12.7386 178.216 12.7386C179.42 12.7386 180.403 13.1193 181.165 13.8807C181.926 14.642 182.307 15.7528 182.307 17.2131V26H179.213V17.6903C179.213 16.8778 178.997 16.2841 178.565 15.9091C178.134 15.5284 177.605 15.3381 176.98 15.3381C176.236 15.3381 175.653 15.571 175.233 16.0369C174.818 16.4972 174.611 17.0966 174.611 17.8352V26H171.585V17.5625C171.585 16.8864 171.381 16.3466 170.972 15.9432C170.568 15.5398 170.04 15.3381 169.386 15.3381C168.943 15.3381 168.54 15.4517 168.176 15.679C167.813 15.9006 167.523 16.2159 167.307 16.625C167.091 17.0284 166.983 17.5 166.983 18.0398V26H163.898ZM185.437 26V12.9091H188.522V26H185.437ZM186.988 11.0511C186.499 11.0511 186.079 10.8892 185.727 10.5653C185.374 10.2358 185.198 9.84091 185.198 9.38068C185.198 8.91477 185.374 8.51989 185.727 8.19602C186.079 7.86648 186.499 7.7017 186.988 7.7017C187.482 7.7017 187.903 7.86648 188.249 8.19602C188.602 8.51989 188.778 8.91477 188.778 9.38068C188.778 9.84091 188.602 10.2358 188.249 10.5653C187.903 10.8892 187.482 11.0511 186.988 11.0511ZM194.78 18.3295V26H191.695V12.9091H194.643V15.1335H194.797C195.098 14.4006 195.578 13.8182 196.237 13.3864C196.902 12.9545 197.723 12.7386 198.7 12.7386C199.604 12.7386 200.391 12.9318 201.061 13.3182C201.737 13.7045 202.26 14.2642 202.629 14.9972C203.004 15.7301 203.189 16.6193 203.183 17.6648V26H200.098V18.142C200.098 17.267 199.871 16.5824 199.416 16.0881C198.967 15.5937 198.345 15.3466 197.55 15.3466C197.01 15.3466 196.53 15.4659 196.109 15.7045C195.695 15.9375 195.368 16.2756 195.129 16.7188C194.896 17.1619 194.78 17.6989 194.78 18.3295Z" fill="#FAFAFA"/>
</svg>
